<svg width="20" height="20" viewBox="0 0 20 20" fill="none" xmlns="http://www.w3.org/2000/svg">
<path d="M9.16667 0H10.8333V2.5H9.16667V0Z" fill="#F76140"/>
<path d="M9.16667 20V17.5H10.8333V20H9.16667Z" fill="#F76140"/>
<path d="M17.5 10.8333H20V9.16667H17.5V10.8333Z" fill="#F76140"/>
<path d="M2.5 9.16667V10.8333H0V9.16667H2.5Z" fill="#F76140"/>
<path d="M16.4818 17.6603L17.6603 16.4818L15.8926 14.7141L14.714 15.8926L16.4818 17.6603Z" fill="#F76140"/>
<path d="M5.28564 4.10744L4.10713 5.28595L2.33937 3.51818L3.51788 2.33967L5.28564 4.10744Z" fill="#F76140"/>
<path d="M2.33956 16.4817L3.51807 17.6602L5.28583 15.8924L4.10732 14.7139L2.33956 16.4817Z" fill="#F76140"/>
<path d="M15.8927 5.28549L14.7142 4.10698L16.482 2.33921L17.6605 3.51773L15.8927 5.28549Z" fill="#F76140"/>
<path fill-rule="evenodd" clip-rule="evenodd" d="M10 4.16667C6.77834 4.16667 4.16667 6.77834 4.16667 10C4.16667 13.2217 6.77834 15.8333 10 15.8333C13.2217 15.8333 15.8333 13.2217 15.8333 10C15.8333 6.77834 13.2217 4.16667 10 4.16667ZM5.83333 10C5.83333 7.69881 7.69881 5.83333 10 5.83333C12.3012 5.83333 14.1667 7.69881 14.1667 10C14.1667 12.3012 12.3012 14.1667 10 14.1667C7.69881 14.1667 5.83333 12.3012 5.83333 10Z" fill="#F76140"/>
</svg>
